<?xml version="1.0" encoding="UTF-8" standalone="no"?>
<!-- Created with Inkscape (http://www.inkscape.org/) -->

<svg
   width="16.481001mm"
   height="10.364552mm"
   viewBox="0 0 16.481001 10.364553"
   version="1.1"
   id="svg1"
   inkscape:version="1.4.2 (ebf0e940d0, 2025-05-08)"
   sodipodi:docname="رسم4.svg"
   xmlns:inkscape="http://www.inkscape.org/namespaces/inkscape"
   xmlns:sodipodi="http://sodipodi.sourceforge.net/DTD/sodipodi-0.dtd"
   xmlns="http://www.w3.org/2000/svg"
   xmlns:svg="http://www.w3.org/2000/svg">
  <sodipodi:namedview
     id="namedview1"
     pagecolor="#ffffff"
     bordercolor="#000000"
     borderopacity="0.25"
     inkscape:showpageshadow="2"
     inkscape:pageopacity="0.0"
     inkscape:pagecheckerboard="true"
     inkscape:deskcolor="#d1d1d1"
     inkscape:document-units="mm"
     inkscape:zoom="7.9999999"
     inkscape:cx="11.5"
     inkscape:cy="13.1875"
     inkscape:window-width="1712"
     inkscape:window-height="894"
     inkscape:window-x="0"
     inkscape:window-y="0"
     inkscape:window-maximized="1"
     inkscape:current-layer="layer1" />
  <defs
     id="defs1">
    <rect
       x="429.69675"
       y="411.65717"
       width="146.3867"
       height="31.347458"
       id="rect2" />
  </defs>
  <g
     inkscape:label="طبقة 1"
     inkscape:groupmode="layer"
     id="layer1"
     transform="translate(-134.57788,-111.53315)">
    <rect
       style="fill:#ffffff;stroke-width:0.0565283;fill-opacity:1"
       id="rect1"
       width="6.7581568"
       height="0.16713527"
       x="143.94543"
       y="118.55244" />
    <text
       xml:space="preserve"
       transform="scale(0.26458333)"
       id="text1"
       style="font-weight:bold;font-family:'Noto Naskh Arabic';-inkscape-font-specification:'Noto Naskh Arabic Bold';text-align:start;writing-mode:lr-tb;direction:ltr;white-space:pre;shape-inside:url(#rect2);display:inline;fill:#000000" />
    <path
       style="font-weight:bold;font-size:3.175px;font-family:Amiri;-inkscape-font-specification:'Amiri Bold';stroke-width:0.264583;fill:#ffffff;fill-opacity:1"
       d="m 149.2438,116.80789 q 0.0635,0.0286 0.14605,0.0571 0.0857,0.0286 0.19367,0.054 0.21273,0.0508 0.38418,0.0476 0.0889,0.003 0.0349,0.1143 l -0.0984,0.1905 q -0.0318,0.0667 -0.0921,0.0603 -0.0825,-0.01 -0.1778,-0.003 -0.0921,0.006 -0.19685,0.0222 -0.10477,0.0159 -0.19685,0.0413 -0.0921,0.0222 -0.17462,0.0476 -0.23813,0.0794 -0.38735,0.12065 -0.14923,0.0413 -0.21273,0.0476 -0.0603,0.003 -0.11112,0.003 -0.0508,0.003 -0.0921,0 l -0.0413,-0.006 v -0.35242 q 0.0286,-0.13335 0.19367,-0.37783 0.16828,-0.25082 0.3302,-0.2413 0.0635,0.003 0.18733,0.0476 0.12382,0.0444 0.31115,0.127 z m -0.23495,0.2921 q -0.17145,-0.0826 -0.35878,-0.0826 -0.19367,0 -0.29527,0.20637 0.127,-0.006 0.28892,-0.0349 0.1651,-0.0318 0.36513,-0.0889 z m 0.0889,0.70802 q 0.0191,-0.0254 0.054,-0.0159 0.0635,0.0222 0.12065,0.0571 0.0603,0.0349 0.11113,0.0794 0.0254,0.0254 0.01,0.0572 l -0.1524,0.2413 q -0.0222,0.0318 -0.0572,0.006 -0.0317,-0.0254 -0.2286,-0.14287 -0.0349,-0.0222 -0.0127,-0.054 z m -1.19063,-0.6096 q -0.0667,0.41275 -0.29528,0.41275 -0.0603,0 -0.0794,-0.0667 -0.0762,-0.26353 0.0794,-0.31115 0.18415,-0.0571 0.18415,-0.24765 l -0.054,-1.37478 q -0.003,-0.073 0.0222,-0.0984 l 0.11748,-0.13335 q 0.0603,-0.0699 0.0603,0.0794 l 0.0349,0.73343 q 0.0254,0.5842 0.0476,0.71437 0.0572,0.28893 0.2159,0.32703 0.0762,0.0191 0.0857,0.14287 0.01,0.12065 -0.0254,0.20003 -0.019,0.0349 -0.0603,0.0349 -0.21907,0 -0.33337,-0.41275 z m -1.69545,-0.1651 q 0.0254,-0.0699 0.0857,-0.0476 0.0571,0.0254 0.0159,0.11747 l -0.0286,0.0571 q 0.3429,0.12383 0.49213,-0.1905 0.0286,-0.0699 0.0857,-0.0444 0.054,0.0254 0.0254,0.0984 -0.0286,0.0762 -0.0286,0.1016 0.006,0.0699 0.12382,0.0825 0.11748,0.0127 0.15558,-0.0381 0.0413,-0.0571 0.073,-0.2159 0.01,-0.0444 0.054,-0.0444 0.0444,0 0.0572,0.0381 0.0984,0.26352 0.2921,0.28257 0.073,0.01 0.0953,0.1143 0.0222,0.0984 -0.003,0.18415 -0.0254,0.0825 -0.0921,0.0825 -0.28575,0 -0.38735,-0.32385 -0.0222,0.0698 -0.0476,0.13335 -0.0254,0.0603 -0.0508,0.11113 -0.0476,0.0921 -0.14287,0.0984 -0.22225,0.01 -0.3429,-0.1397 -0.127,0.11748 -0.30163,0.11748 -0.17462,0 -0.27622,-0.1016 -0.0603,0.0508 -0.127,0.0762 -0.0635,0.0286 -0.13018,0.0286 -0.0857,0 -0.11112,-0.15557 -0.003,-0.0191 -0.006,-0.0444 -0.003,-0.0286 -0.006,-0.0635 -0.006,-0.0794 0.073,-0.10795 0.0286,-0.01 0.0508,-0.01 0.33973,-0.0222 0.40323,-0.19685 z m -0.78423,-0.94297 q 0.073,-0.0952 0.0889,0.0857 l 0.0921,0.762 q 0.0349,0.29528 0.20002,0.2921 0.0762,0 0.10478,0.0699 0.0286,0.0762 -0.006,0.19368 -0.0349,0.11747 -0.0984,0.11747 -0.19685,0 -0.2794,-0.1016 -0.0794,-0.0984 -0.1143,-0.34607 -0.12065,0.18097 -0.16827,0.2032 -0.0444,0.0222 -0.16193,0.0127 -0.1524,-0.01 -0.26035,-0.0794 -0.0698,-0.0444 -0.0603,-0.13652 0.01,-0.0921 0.0699,-0.2032 0.0317,-0.0572 0.0572,-0.0984 0.0254,-0.0413 0.0444,-0.0635 0.1524,-0.16192 0.38417,-0.2921 -0.0254,-0.25082 0.0127,-0.29845 z m -0.0794,0.64452 q -0.2413,0.0762 -0.3302,0.2032 -0.0127,0.0191 0.01,0.0318 0.15875,0.0667 0.3556,0.0127 -0.006,-0.0508 -0.0159,-0.11112 -0.01,-0.0635 -0.019,-0.13653 z m -0.20638,-1.14617 q 0.019,-0.0254 0.054,-0.0159 0.0635,0.0222 0.12382,0.0571 0.0603,0.0349 0.11113,0.0794 0.0254,0.0254 0.01,0.0572 l -0.1524,0.2413 q -0.0254,0.0349 -0.0572,0.006 -0.0127,-0.0127 -0.0572,-0.0381 -0.0413,-0.0286 -0.11112,-0.0699 l -0.10478,0.17145 q -0.0222,0.0318 -0.0572,0.006 -0.0159,-0.0127 -0.0762,-0.0476 -0.0571,-0.0349 -0.15557,-0.0953 -0.0349,-0.019 -0.01,-0.054 l 0.1524,-0.2286 q 0.0191,-0.0254 0.054,-0.0159 0.0953,0.0317 0.1778,0.0921 z m 0.15241,-1.2573 q 0.0572,-0.0381 0.0921,-0.0286 0.0381,0.01 0.0127,0.0826 l -0.0349,0.0984 q -0.019,0.054 -0.0603,0.0825 l -0.55562,0.3429 q -0.0317,0.0191 -0.0667,0.0127 -0.0349,-0.006 -0.0254,-0.0667 l 0.01,-0.0603 q 0.01,-0.054 0.0635,-0.0889 z m -0.0127,-0.3175 q 0.0508,-0.0318 0.0825,-0.0222 0.0318,0.01 0.0191,0.073 l -0.0222,0.0825 q -0.019,0.0603 -0.0762,0.0953 l -0.56197,0.32702 q -0.0667,0.0349 -0.0952,0.0222 -0.0349,-0.0159 -0.006,-0.0825 l 0.0286,-0.0603 q 0.0222,-0.0508 0.0571,-0.073 z"
       id="text3"
       aria-label="جلسةً" />
    <rect
       style="fill:#ffffff;stroke-width:0.0565277;fill-opacity:1"
       id="rect1-3"
       width="6.7579999"
       height="0.16713527"
       x="134.93341"
       y="118.55244" />
    <path
       style="font-weight:bold;font-size:3.175px;font-family:Amiri;-inkscape-font-specification:'Amiri Bold';stroke-width:0.264583;fill:#ffffff;fill-opacity:1"
       d="m 140.21107,116.80789 q 0.0635,0.0286 0.14605,0.0571 0.0857,0.0286 0.19367,0.054 0.21273,0.0508 0.38418,0.0476 0.0889,0.003 0.0349,0.1143 l -0.0984,0.1905 q -0.0317,0.0667 -0.0921,0.0603 -0.0825,-0.01 -0.1778,-0.003 -0.0921,0.006 -0.19685,0.0222 -0.10477,0.0159 -0.19685,0.0413 -0.0921,0.0222 -0.17462,0.0476 -0.23813,0.0794 -0.38735,0.12065 -0.14923,0.0413 -0.21273,0.0476 -0.0603,0.003 -0.11112,0.003 -0.0508,0.003 -0.0921,0 l -0.0413,-0.006 v -0.35242 q 0.0286,-0.13335 0.19367,-0.37783 0.16828,-0.25082 0.3302,-0.2413 0.0635,0.003 0.18733,0.0476 0.12382,0.0444 0.31115,0.127 z m -0.23495,0.2921 q -0.17145,-0.0826 -0.35878,-0.0826 -0.19367,0 -0.29527,0.20637 0.127,-0.006 0.28892,-0.0349 0.1651,-0.0318 0.36513,-0.0889 z m 0.0889,0.70802 q 0.019,-0.0254 0.054,-0.0159 0.0635,0.0222 0.12065,0.0571 0.0603,0.0349 0.11113,0.0794 0.0254,0.0254 0.01,0.0572 l -0.1524,0.2413 q -0.0222,0.0318 -0.0571,0.006 -0.0318,-0.0254 -0.2286,-0.14287 -0.0349,-0.0222 -0.0127,-0.054 z m -1.19063,-0.6096 q -0.0667,0.41275 -0.29528,0.41275 -0.0603,0 -0.0794,-0.0667 -0.0762,-0.26353 0.0794,-0.31115 0.18415,-0.0571 0.18415,-0.24765 l -0.054,-1.37478 q -0.003,-0.073 0.0222,-0.0984 l 0.11748,-0.13335 q 0.0603,-0.0699 0.0603,0.0794 l 0.0349,0.73343 q 0.0254,0.5842 0.0476,0.71437 0.0572,0.28893 0.2159,0.32703 0.0762,0.0191 0.0857,0.14287 0.01,0.12065 -0.0254,0.20003 -0.019,0.0349 -0.0603,0.0349 -0.21907,0 -0.33337,-0.41275 z m -1.69545,-0.1651 q 0.0254,-0.0699 0.0857,-0.0476 0.0572,0.0254 0.0159,0.11747 l -0.0286,0.0571 q 0.3429,0.12383 0.49213,-0.1905 0.0286,-0.0699 0.0857,-0.0444 0.054,0.0254 0.0254,0.0984 -0.0286,0.0762 -0.0286,0.1016 0.006,0.0699 0.12382,0.0825 0.11748,0.0127 0.15558,-0.0381 0.0413,-0.0571 0.073,-0.2159 0.01,-0.0444 0.054,-0.0444 0.0445,0 0.0572,0.0381 0.0984,0.26352 0.2921,0.28257 0.073,0.01 0.0952,0.1143 0.0222,0.0984 -0.003,0.18415 -0.0254,0.0825 -0.0921,0.0825 -0.28575,0 -0.38735,-0.32385 -0.0222,0.0698 -0.0476,0.13335 -0.0254,0.0603 -0.0508,0.11113 -0.0476,0.0921 -0.14287,0.0984 -0.22225,0.01 -0.3429,-0.1397 -0.127,0.11748 -0.30163,0.11748 -0.17462,0 -0.27622,-0.1016 -0.0603,0.0508 -0.127,0.0762 -0.0635,0.0286 -0.13018,0.0286 -0.0857,0 -0.11112,-0.15557 -0.003,-0.0191 -0.006,-0.0444 -0.003,-0.0286 -0.006,-0.0635 -0.006,-0.0794 0.073,-0.10795 0.0286,-0.01 0.0508,-0.01 0.33973,-0.0222 0.40323,-0.19685 z m -0.78423,-0.94297 q 0.073,-0.0952 0.0889,0.0857 l 0.0921,0.762 q 0.0349,0.29528 0.20002,0.2921 0.0762,0 0.10478,0.0699 0.0286,0.0762 -0.006,0.19368 -0.0349,0.11747 -0.0984,0.11747 -0.19685,0 -0.2794,-0.1016 -0.0794,-0.0984 -0.1143,-0.34607 -0.12065,0.18097 -0.16827,0.2032 -0.0445,0.0222 -0.16193,0.0127 -0.1524,-0.01 -0.26035,-0.0794 -0.0699,-0.0444 -0.0603,-0.13652 0.01,-0.0921 0.0699,-0.2032 0.0317,-0.0572 0.0571,-0.0984 0.0254,-0.0413 0.0445,-0.0635 0.1524,-0.16192 0.38417,-0.2921 -0.0254,-0.25082 0.0127,-0.29845 z m -0.0794,0.64452 q -0.2413,0.0762 -0.3302,0.2032 -0.0127,0.0191 0.01,0.0318 0.15875,0.0667 0.3556,0.0127 -0.006,-0.0508 -0.0159,-0.11112 -0.01,-0.0635 -0.0191,-0.13653 z m -0.20638,-1.14617 q 0.019,-0.0254 0.054,-0.0159 0.0635,0.0222 0.12382,0.0571 0.0603,0.0349 0.11113,0.0794 0.0254,0.0254 0.01,0.0572 l -0.1524,0.2413 q -0.0254,0.0349 -0.0572,0.006 -0.0127,-0.0127 -0.0571,-0.0381 -0.0413,-0.0286 -0.11112,-0.0699 l -0.10478,0.17145 q -0.0222,0.0318 -0.0572,0.006 -0.0159,-0.0127 -0.0762,-0.0476 -0.0572,-0.0349 -0.15557,-0.0953 -0.0349,-0.019 -0.01,-0.054 l 0.1524,-0.2286 q 0.019,-0.0254 0.054,-0.0159 0.0952,0.0317 0.1778,0.0921 z"
       id="text3-5"
       aria-label="جلسة" />
    <path
       d="m 138.31241,119.36208 c -0.54778,0 -0.99183,0.44408 -0.99183,0.99182 0,0.54776 0.44408,0.99184 0.99183,0.99184 0.54776,0 0.99184,-0.44408 0.99184,-0.99184 0,-0.54774 -0.44408,-0.99182 -0.99184,-0.99182 z m -0.2306,1.58693 -5.3e-4,-5.3e-4 -5.4e-4,5.3e-4 -0.46245,-0.47608 0.23238,-0.23685 0.23067,0.23751 0.69428,-0.71475 0.23124,0.23797 z"
       fill="#7cb342"
       id="path1"
       style="display:inline;stroke-width:0.0330611" />
    <path
       d="m 147.32451,119.36191 c -0.54785,0 -0.992,0.44415 -0.992,0.99203 0,0.54779 0.44415,0.99197 0.992,0.99197 0.54785,0 0.992,-0.44418 0.992,-0.99197 0,-0.54788 -0.44415,-0.99203 -0.992,-0.99203 z m 0.72747,0.99203 c 0,0.15307 -0.0474,0.29502 -0.12817,0.41218 l -1.01154,-1.01151 c 0.11719,-0.0808 0.25914,-0.12817 0.41224,-0.12817 0.40176,0 0.72747,0.32574 0.72747,0.7275 z m -1.45494,0 c 0,-0.1531 0.0474,-0.29508 0.12817,-0.41227 l 1.01154,1.01154 c -0.11715,0.0808 -0.25914,0.1282 -0.41224,0.1282 -0.40176,0 -0.72747,-0.32577 -0.72747,-0.72747 z"
       fill="#e53935"
       id="path1-6"
       style="stroke-width:0.0330666" />
    <path
       d="m 144.71288,113.47594 c -0.0588,-0.0588 -0.29015,-0.29016 -0.29382,-0.29383 -0.0569,-0.0551 -0.14508,-0.0551 -0.20201,0 -0.0569,0.0551 -0.0569,0.14691 0,0.202 0.004,0.004 0.53807,0.53991 0.53807,0.53991 0.0569,0.0569 0.14875,0.0569 0.20201,0 0,0 0.52889,-0.52705 0.53991,-0.53991 0.0551,-0.0551 0.0551,-0.14507 0,-0.202 -0.0569,-0.0551 -0.14875,-0.0551 -0.20385,0 -0.011,0.011 -0.29382,0.29566 -0.29382,0.29566 v -1.02105 c 0,-0.079 -0.0643,-0.14324 -0.14325,-0.14324 -0.079,0 -0.14324,0.0643 -0.14324,0.14324 z"
       id="path1-8"
       style="stroke-width:0.0183642;fill:#ffffff;fill-opacity:1" />
    <path
       d="m 135.82238,114.85454 c -0.0588,-0.0588 -0.29015,-0.29016 -0.29382,-0.29383 -0.0569,-0.0551 -0.14508,-0.0551 -0.20201,0 -0.0569,0.0551 -0.0569,0.14691 0,0.202 0.004,0.004 0.53807,0.53991 0.53807,0.53991 0.0569,0.0569 0.14875,0.0569 0.20201,0 0,0 0.52889,-0.52705 0.53991,-0.53991 0.0551,-0.0551 0.0551,-0.14507 0,-0.202 -0.0569,-0.0551 -0.14875,-0.0551 -0.20385,0 -0.011,0.011 -0.29382,0.29566 -0.29382,0.29566 v -1.02105 c 0,-0.079 -0.0643,-0.14324 -0.14325,-0.14324 -0.079,0 -0.14324,0.0643 -0.14324,0.14324 z"
       id="path1-8-2"
       style="stroke-width:0.0183642;fill:#ffffff;fill-opacity:1" />
  </g>
</svg>
